# AST/ASF file generated using VICON BodyLanguage
# -----------------------------------------------
:version 1.10
:name VICON
:units
  mass 1.0
  length 0.45
  angle deg
:documentation
   .ast/.asf automatically generated from VICON data using
   VICON BodyBuilder and BodyLanguage model FoxedUp or BRILLIANT.MOD
:root
   order TX TY TZ RX RY RZ
   axis XYZ
   position 0 0 0  
   orientation 0 0 0 
:bonedata
  begin
     id 1 
     name lhipjoint
     direction 0.645422 -0.672597 0.361999 
     length 2.39934 
     axis 0 0 0  XYZ
  end
  begin
     id 2 
     name lfemur
     direction 0.34202 -0.939693 0  
     length 6.58112  
     axis 0 0 20  XYZ
    dof rx ry rz
    limits (-160.0 20.0)
           (-70.0 70.0)
           (-60.0 70.0)
  end
  begin
     id 3 
     name ltibia
     direction 0.34202 -0.939693 0   
     length 7.02673   
     axis 0 0 20   XYZ
    dof rx
    limits (-10.0 170.0)
  end
  begin
     id 4 
     name lfoot
     direction 0.0835106 -0.229444 0.969733   
     length 2.08772   
     axis -90 7.62852e-016 20   XYZ
    dof rx rz
    limits (-45.0 90.0)
           (-70.0 20.0)
  end
  begin
     id 5 
     name ltoes
     direction 1.5358e-011 -4.21925e-011 1   
     length 1.04844   
     axis -90 7.62852e-016 20   XYZ
    dof rx
    limits (-90.0 20.0)
  end
  begin
     id 6 
     name rhipjoint
     direction -0.644959 -0.672941 0.362185   
     length 2.39812  
     axis 0 0 0  XYZ 
  end
  begin
     id 7 
     name rfemur
     direction -0.34202 -0.939693 0   
     length 6.67015   
     axis 0 0 -20   XYZ
    dof rx ry rz
    limits (-160.0 20.0)
           (-70.0 70.0)
           (-70.0 60.0)
  end
  begin
     id 8 
     name rtibia
     direction -0.34202 -0.939693 0   
     length 7.35735   
     axis 0 0 -20   XYZ
    dof rx
    limits (-10.0 170.0)
 end
 begin
     id 9 
     name rfoot
     direction -0.0670769 -0.184292 0.98058   
     length 2.25469  
     axis -90 -7.62852e-016 -20   XYZ
    dof rx rz
    limits (-45.0 90.0)
           (-20.0 70.0)
  end
  begin
     id 10 
     name rtoes
     direction -1.53575e-011 -4.21908e-011 1   
     length 1.13399   
     axis -90 -7.62852e-016 -20   XYZ
    dof rx
    limits (-90.0 20.0)
  end
  begin
     id 11 
     name lowerback
     direction -0.0188328 0.993434 -0.112847   
     length 2.27656   
     axis 0 0 0   XYZ
    dof rx ry rz
    limits (-20.0 45.0)
           (-30.0 30.0)
           (-30.0 30.0)
  end
  begin
     id 12 
     name upperback
     direction 0.00983139 0.998968 -0.04435   
     length 2.28631   
     axis 0 0 0   XYZ
    dof rx ry rz
    limits (-20.0 45.0)
           (-30.0 30.0)
           (-30.0 30.0)
  end
  begin
     id 13 
     name thorax
     direction 0.0177718 0.999807 0.00833073   
     length 2.30999   
     axis 0 0 0   XYZ
    dof rx ry rz
    limits (-20.0 45.0)
           (-30.0 30.0)
           (-30.0 30.0)
  end
  begin
     id 14 
     name lowerneck
     direction -0.0835025 0.993181 0.0813558   
     length 1.39447   
     axis 0 0 0   XYZ
    dof rx ry rz
    limits (-20.0 45.0)
           (-30.0 30.0)
           (-30.0 30.0)
  end
  begin
     id 15 
     name upperneck
     direction 0.210059 0.976535 0.0474817   
     length 1.39882   
     axis 0 0 0   XYZ
    dof rx ry rz
    limits (-20.0 45.0)
           (-30.0 30.0)
           (-30.0 30.0)
  end
  begin
     id 16
     name head
     direction 0.0780891 0.996944 -0.00207154  
     length 1.41828  
     axis 0 0 0   XYZ
    dof rx ry rz
    limits (-20.0 45.0)
           (-30.0 30.0)
           (-30.0 30.0)
  end
  begin
     id 17 
     name lclavicle
     direction 0.982414 0.166355 -0.0847829  
     length 3.57922  
     axis 0 0 0   XYZ
    dof ry rz
    limits (-20.0 10.0)
           (0.0 20.0)
  end
  begin
     id 18 
     name lhumerus
     direction 1 -4.48975e-011 5.47647e-028   
     length 4.76405   
     axis -180 -30 -90   XYZ
    dof rx ry rz
    limits (-60.0 90.0)
           (-90.0 90.0)
           (-90.0 90.0)
  end
  begin
     id 19
     name lradius
     direction 1 -4.48949e-011 -8.32142e-027   
     length 3.13759   
     axis -180 -30 -90   XYZ
    dof rx
    limits (-10.0 170.0)
  end
  begin
     id 20
     name lwrist
     direction 1 -4.48978e-011 -1.32705e-026   
     length 1.56879   
     axis 9.60836e-015 90 90   XYZ
    dof ry
    limits (-180.0 0.0)
 end
  begin
     id 21 
     name lhand
     direction 1 -4.48975e-011 -2.65409e-026   
     length 0.732262   
     axis 1.69354e-014 90 90   XYZ
    dof rx rz
    limits (-90.0 90.0)
           (-45.0 45.0)
  end
  begin
     id 22 
     name lfingers
     direction 1 -4.48923e-011 -5.30819e-026   
     length 0.590368   
     axis 3.38708e-014 90 90   XYZ
    dof rx
    limits (0.0 90.0)
  end
  begin
     id 23
     name lthumb
     direction 0.707107 -6.34914e-011 0.707107   
     length 0.847654   
     axis -90 45 2.85299e-015   XYZ
    dof rx rz
    limits (-45.0 45.0)
           (-45.0 45.0)
  end
  begin
     id 24 
     name rclavicle
     direction -0.963658 0.245183 -0.106063   
     length 3.43472  
     axis 0 0 0   XYZ 
    dof ry rz
    limits (-10.0 20.0)
           (-20.0 0.0)
  end
  begin
     id 25 
     name rhumerus
     direction -1 -4.48963e-011 -1.64784e-027  
     length 5.10161   
     axis -180 30 90   XYZ
    dof rx ry rz
    limits (-90.0 60.0)
           (-90.0 90.0)
           (-90.0 90.0)
  end
  begin
     id 26 
     name rradius
     direction -1 -4.48969e-011 -2.87943e-027   
     length 3.23267   
     axis -180 30 90   XYZ
    dof rx
    limits (-10.0 170.0)
  end
  begin
     id 27 
     name rwrist
     direction -1 -4.48982e-011 -1.32705e-026   
     length 1.61633   
     axis 9.60836e-015 -90 -90   XYZ
    dof ry
    limits (-180.0 0.0)
  end
  begin
     id 28
     name rhand
     direction -1 -4.48963e-011 -2.65409e-026   
     length 0.702   
     axis 1.69354e-014 -90 -90   XYZ
    dof rx rz
    limits (-90.0 90.0)
           (-45.0 45.0)
  end
  begin
     id 29
     name rfingers
     direction -1 -4.48934e-011 -5.30819e-026   
     length 0.565971   
     axis 3.38708e-014 -90 -90   XYZ
    dof rx
    limits (0.0 90.0)
  end
  begin
     id 30
     name rthumb
     direction -0.707107 -6.34908e-011 0.707107   
     length 0.812624   
     axis -90 -45 -2.85299e-015   XYZ
    dof rx rz
    limits (-45.0 45.0)
           (-45.0 45.0)
  end
:hierarchy
  begin
    root lhipjoint rhipjoint lowerback
    lhipjoint lfemur
    lfemur ltibia
    ltibia lfoot
    lfoot ltoes
    rhipjoint rfemur
    rfemur rtibia
    rtibia rfoot
    rfoot rtoes
    lowerback upperback
    upperback thorax
    thorax lowerneck lclavicle rclavicle
    lowerneck upperneck
    upperneck head
    lclavicle lhumerus
    lhumerus lradius
    lradius lwrist
    lwrist lhand lthumb
    lhand lfingers
    rclavicle rhumerus
    rhumerus rradius
    rradius rwrist
    rwrist rhand rthumb
    rhand rfingers
  end

#!OML:ASF E:\basketball\basketball\Project 1\Capture day 1\Session 1\Subject.ASF
:FULLY-SPECIFIED
:DEGREES
33
root -37.0239 15.2253 -16.2187 5.4743 74.4947 4.64011
lowerback -2.11558 -2.58448 0.917616
upperback 6.8104 -3.43428 0.232737
thorax 8.28253 -1.58793 -0.577128
lowerneck -15.2153 1.29412 -23.6206
upperneck 6.01138 4.58384 21.4899
head 3.21399 3.00286 11.3173
rclavicle 4.8255e-014 1.19271e-015
rhumerus -32.7242 -0.327062 -91.4293
rradius 79.8843
rwrist 13.6494
rhand -22.6107 -4.95583
rfingers 7.12502
rthumb 3.81905 -34.9014
lclavicle 4.8255e-014 1.19271e-015
lhumerus -30.1983 -16.7329 105.715
lradius 106.56
lwrist 25.6901
lhand -9.50212 24.8068
lfingers 7.12502
lthumb 16.463 54.1283
rfemur -12.118 -6.61325 20.1546
rtibia 49.775
rfoot -37.8168 -16.571
rtoes 4.24991
lfemur -10.9901 -4.28625 -24.1243
ltibia 41.9594
lfoot -25.8596 -3.57714
ltoes 17.4759
34
root -36.9828 15.2092 -16.216 4.79566 74.0791 3.89782
lowerback -2.19744 -2.42704 0.998789
upperback 7.05712 -3.23287 0.348393
thorax 8.60515 -1.48043 -0.492421
lowerneck -14.0019 -0.849271 -21.2766
upperneck 8.11045 0.77376 19.9327
head 4.55747 0.994084 10.1953
rclavicle 2.37548e-014 -1.45113e-014
rhumerus -32.4513 -0.444475 -91.2956
rradius 80.0155
rwrist 13.2062
rhand -22.7283 -5.78604
rfingers 7.12502
rthumb 3.70544 -35.7336
lclavicle 2.37548e-014 -1.45113e-014
lhumerus -29.6051 -17.1835 105.881
lradius 106.313
lwrist 25.822
lhand -9.38805 24.7631
lfingers 7.12502
lthumb 16.5729 54.0754
rfemur -12.1536 -6.39627 20.2735
rtibia 49.9289
rfoot -37.8171 -16.5856
rtoes 3.33696
lfemur -11.0086 -4.06543 -23.9981
ltibia 42.2469
lfoot -26.0227 -3.48297
ltoes 17.8095
35
root -36.9778 15.0971 -16.2148 7.19952 73.9089 5.93895
lowerback -2.26627 -2.40599 0.500042
upperback 6.87334 -3.16113 0.117215
thorax 8.45911 -1.47477 -0.450096
lowerneck -15.3022 -0.756066 -22.6839
upperneck 7.96024 1.35621 21.2215
head 4.59189 1.38079 11.0025
rclavicle 9.29318e-015 7.55382e-015
rhumerus -32.7922 -0.538052 -91.4473
rradius 80.2524
rwrist 12.7777
rhand -22.9028 -6.65135
rfingers 7.12502
rthumb 3.53694 -36.6018
lclavicle 9.29318e-015 7.55382e-015
lhumerus -29.5026 -17.487 105.816
lradius 106.24
lwrist 26.1635
lhand -9.32191 24.7967
lfingers 7.12502
lthumb 16.6365 54.1037
rfemur -13.0353 -6.45569 19.6776
rtibia 50.6144
rfoot -38.2136 -16.5043
rtoes 3.46145
lfemur -10.0939 -3.68326 -24.7474
ltibia 42.1563
lfoot -30.478 -4.65271
ltoes 22.6605
36
root -36.9239 15.1117 -16.1963 10.3749 73.7555 8.80524
lowerback -2.58137 -2.50641 -0.410039
upperback 6.75297 -3.22927 -0.0487921
thorax 8.55596 -1.56414 -0.13723
lowerneck -16.0372 -0.652043 -23.6173
upperneck 8.03348 1.77415 22.1278
head 4.62616 1.65124 11.5754
rclavicle -9.47706e-014 1.2921e-014
rhumerus -33.1502 -0.295386 -91.4916
rradius 80.4933
rwrist 12.3886
rhand -23.073 -7.51527
rfingers 7.12502
rthumb 3.37255 -37.4683
lclavicle -9.47706e-014 1.2921e-014
lhumerus -29.3543 -17.5998 105.939
lradius 106.27
lwrist 26.5352
lhand -9.30745 24.8981
lfingers 7.12502
lthumb 16.6505 54.204
rfemur -13.2718 -6.70548 18.7227
rtibia 50.8042
rfoot -38.6306 -16.1566
rtoes 3.74479
lfemur -10.6346 -3.66085 -25.6876
ltibia 42.1903
lfoot -30.1312 -3.47677
ltoes 18.9046
37
root -36.8446 15.1803 -16.1804 10.9491 73.505 9.23548
lowerback -2.62934 -2.52673 -0.607945
upperback 6.63608 -3.24535 -0.0704284
thorax 8.46728 -1.58633 -0.0507305
lowerneck -16.0116 -0.590087 -23.833
upperneck 8.35321 1.81883 22.6215
head 4.69922 1.69335 11.826
rclavicle 7.71781e-014 -1.72943e-014
rhumerus -33.5711 -0.206111 -91.6294
rradius 80.5424
rwrist 12.2111
rhand -23.1895 -8.36486
rfingers 7.12502
rthumb 3.26007 -38.3197
lclavicle 7.71781e-014 -1.72943e-014
lhumerus -29.3301 -17.494 106.017
lradius 105.444
lwrist 26.1394
lhand -9.19515 24.6757
lfingers 7.12502
lthumb 16.7586 53.9724
rfemur -12.9121 -6.87015 18.3857
rtibia 50.6477
rfoot -38.9402 -15.5987
rtoes 3.78352
lfemur -11.5227 -3.75109 -25.7213
ltibia 42.1679
lfoot -26.2669 -3.701
ltoes 17.8652
38
root -36.8 15.1739 -16.1755 9.92726 73.1309 8.03206
lowerback -2.58133 -2.37917 -0.286585
upperback 6.61785 -3.07286 -0.0310825
thorax 8.40134 -1.48271 -0.168093
lowerneck -15.0111 -0.221148 -23.3126
upperneck 6.90252 2.21252 22.1834
head 4.01518 1.85014 11.4791
rclavicle 4.17448e-015 3.97569e-015
rhumerus -33.6959 -0.440249 -91.7581
rradius 80.5517
rwrist 12.0509
rhand -23.3805 -9.35545
rfingers 7.12502
rthumb 3.07562 -39.313
lclavicle 4.17448e-015 3.97569e-015
lhumerus -29.1411 -17.9949 106.179
lradius 105.239
lwrist 27.1475
lhand -9.43161 24.9155
lfingers 7.12502
lthumb 16.5309 54.2313
rfemur -12.8055 -6.70987 18.6309
rtibia 50.4282
rfoot -38.9929 -15.237
rtoes 4.12647
lfemur -11.5015 -2.82609 -25.3931
ltibia 42.3104
lfoot -24.6989 -3.48604
ltoes 13.1837
39
root -36.749 15.1837 -16.1678 9.12796 72.7097 7.03222
lowerback -2.50497 -2.24499 -0.0765081
upperback 6.571 -2.91352 0.0454259
thorax 8.29758 -1.39493 -0.184535
lowerneck -15.4149 0.159738 -24.546
upperneck 6.38574 3.07715 23.2823
head 3.68844 2.34271 12.1655
rclavicle -1.2265e-013 3.16068e-014
rhumerus -33.8912 -0.505789 -91.765
rradius 80.6783
rwrist 11.7291
rhand -23.5526 -10.1968
rfingers 7.12502
rthumb 2.90939 -40.1567
lclavicle -1.2265e-013 3.16068e-014
lhumerus -28.9665 -18.3382 106.42
lradius 105.216
lwrist 28.3883
lhand -9.65612 25.0214
lfingers 7.12502
lthumb 16.3148 54.3551
rfemur -12.6971 -6.57452 18.813
rtibia 50.1895
rfoot -39.0219 -14.8978
rtoes 4.36719
lfemur -11.6219 -2.19251 -25.1337
ltibia 42.5987
lfoot -24.4048 -2.69112
ltoes 10.6903
40
root -36.6965 15.1781 -16.162 8.66443 72.4353 6.38369
lowerback -2.51018 -2.12579 0.0981513
upperback 6.63057 -2.76564 0.0718908
thorax 8.35777 -1.31086 -0.241253
lowerneck -16.3476 -0.513132 -24.1281
upperneck 7.43387 2.11178 23.5132
head 4.4092 1.92314 12.2228
rclavicle 4.82053e-014 -1.74931e-014
rhumerus -33.9548 -0.608064 -91.8438
rradius 80.9395
rwrist 11.2734
rhand -23.74 -11.008
rfingers 7.12502
rthumb 2.72849 -40.9703
lclavicle 4.82053e-014 -1.74931e-014
lhumerus -28.6503 -18.9984 106.592
lradius 105.017
lwrist 29.5421
lhand -9.90071 25.1296
lfingers 7.12502
lthumb 16.0793 54.4825
rfemur -12.6274 -6.45467 18.9122
rtibia 50.2839
rfoot -39.3484 -14.4395
rtoes 4.6848
lfemur -11.7418 -2.19603 -25.0559
ltibia 43.0111
lfoot -23.3481 0.927256
ltoes 0.846015
41
root -36.6514 15.1191 -16.1594 8.64303 71.9529 6.04002
lowerback -2.64707 -1.97097 0.234635
upperback 6.67797 -2.56308 0.00795558
thorax 8.48069 -1.19892 -0.37103
lowerneck -18.8076 -1.21889 -25.4791
upperneck 10.331 1.35622 26.4485
head 5.88252 1.80507 13.9523
rclavicle 4.45775e-014 -6.55989e-015
rhumerus -33.9567 -0.35922 -92.328
rradius 81.2763
rwrist 8.89736
rhand -25.1723 -13.5693
rfingers 7.12502
rthumb 1.34513 -43.5448
lclavicle 4.45775e-014 -6.55989e-015
lhumerus -28.2386 -19.6273 106.6
lradius 104.568
lwrist 30.1861
lhand -10.065 25.074
lfingers 7.12502
lthumb 15.921 54.4396
rfemur -13.5021 -6.06925 18.9854
rtibia 50.4187
rfoot -37.679 -17.1162
rtoes -1.42398
lfemur -12.1703 -1.85604 -25.1102
ltibia 43.6376
lfoot -24.7135 0.600928
ltoes -5.75036
